<svg width="33" height="27" viewBox="0 0 33 27" fill="none" xmlns="http://www.w3.org/2000/svg">
<g opacity="0.7" clip-path="url(#clip0_75_2)">
<path d="M26.1666 18.225L23.2416 7.68264C22.617 5.42748 21.256 3.44605 19.3753 2.05368C17.4945 0.661322 15.2021 -0.06195 12.8629 -0.00102035C10.5236 0.0599093 8.27194 0.901539 6.46624 2.38992C4.66054 3.8783 3.40456 5.9279 2.89821 8.21251L0.635835 18.3938C0.526364 18.887 0.529035 19.3985 0.643649 19.8906C0.758263 20.3827 0.981896 20.8428 1.29805 21.2369C1.6142 21.631 2.01481 21.9491 2.47031 22.1677C2.92581 22.3863 3.42459 22.4999 3.92983 22.5H7.98771C8.24591 23.7716 8.93578 24.9148 9.94042 25.7359C10.9451 26.5571 12.2027 27.0057 13.5002 27.0057C14.7977 27.0057 16.0554 26.5571 17.06 25.7359C18.0646 24.9148 18.7545 23.7716 19.0127 22.5H22.9165C23.4363 22.4998 23.9491 22.3794 24.4148 22.1484C24.8805 21.9174 25.2866 21.5819 25.6013 21.1681C25.916 20.7543 26.1308 20.2734 26.2291 19.7629C26.3274 19.2524 26.3052 18.7261 26.1666 18.225ZM13.5002 24.75C12.8047 24.7471 12.127 24.5294 11.5599 24.1267C10.9928 23.7239 10.5641 23.1558 10.3322 22.5H16.6682C16.4364 23.1558 16.0076 23.7239 15.4405 24.1267C14.8734 24.5294 14.1958 24.7471 13.5002 24.75ZM23.8108 19.8056C23.7059 19.9448 23.5698 20.0574 23.4136 20.1346C23.2573 20.2118 23.0851 20.2513 22.9108 20.25H3.92983C3.76138 20.25 3.59508 20.2121 3.44321 20.1392C3.29135 20.0663 3.15779 19.9603 3.0524 19.8288C2.947 19.6974 2.87247 19.544 2.8343 19.38C2.79612 19.2159 2.79528 19.0453 2.83183 18.8809L5.09421 8.69964C5.49286 6.90662 6.47943 5.29831 7.8971 4.13039C9.31476 2.96247 11.0822 2.30195 12.9183 2.25385C14.7545 2.20575 16.5541 2.77282 18.0309 3.86491C19.5078 4.95701 20.5772 6.51145 21.0692 8.28114L23.9942 18.8235C24.042 18.9902 24.0503 19.1658 24.0184 19.3362C23.9866 19.5067 23.9155 19.6674 23.8108 19.8056Z" fill="black"/>
</g>
<circle cx="30" cy="3" r="3" fill="#5F66FC"/>
<defs>
<clipPath id="clip0_75_2">
<rect width="27" height="27" fill="white"/>
</clipPath>
</defs>
</svg>
