<svg width="17" height="17" viewBox="0 0 17 17" fill="none" xmlns="http://www.w3.org/2000/svg">
<g id="adicionar-aplicativos 1" clip-path="url(#clip0_27_199)">
<path id="Vector" d="M4.95833 0H2.83333C2.08189 0 1.36122 0.298511 0.829864 0.829864C0.298511 1.36122 0 2.08189 0 2.83333L0 4.95833C0 5.70978 0.298511 6.43045 0.829864 6.9618C1.36122 7.49316 2.08189 7.79167 2.83333 7.79167H4.95833C5.70978 7.79167 6.43045 7.49316 6.9618 6.9618C7.49316 6.43045 7.79167 5.70978 7.79167 4.95833V2.83333C7.79167 2.08189 7.49316 1.36122 6.9618 0.829864C6.43045 0.298511 5.70978 0 4.95833 0ZM6.375 4.95833C6.375 5.33406 6.22575 5.69439 5.96007 5.96007C5.69439 6.22575 5.33406 6.375 4.95833 6.375H2.83333C2.45761 6.375 2.09728 6.22575 1.8316 5.96007C1.56592 5.69439 1.41667 5.33406 1.41667 4.95833V2.83333C1.41667 2.45761 1.56592 2.09728 1.8316 1.8316C2.09728 1.56592 2.45761 1.41667 2.83333 1.41667H4.95833C5.33406 1.41667 5.69439 1.56592 5.96007 1.8316C6.22575 2.09728 6.375 2.45761 6.375 2.83333V4.95833Z" fill="#5F66FC"/>
<path id="Vector_2" d="M4.95833 9.20833H2.83333C2.08189 9.20833 1.36122 9.50684 0.829864 10.0382C0.298511 10.5695 0 11.2902 0 12.0417L0 14.1667C0 14.9181 0.298511 15.6388 0.829864 16.1701C1.36122 16.7015 2.08189 17 2.83333 17H4.95833C5.70978 17 6.43045 16.7015 6.9618 16.1701C7.49316 15.6388 7.79167 14.9181 7.79167 14.1667V12.0417C7.79167 11.2902 7.49316 10.5695 6.9618 10.0382C6.43045 9.50684 5.70978 9.20833 4.95833 9.20833ZM6.375 14.1667C6.375 14.5424 6.22575 14.9027 5.96007 15.1684C5.69439 15.4341 5.33406 15.5833 4.95833 15.5833H2.83333C2.45761 15.5833 2.09728 15.4341 1.8316 15.1684C1.56592 14.9027 1.41667 14.5424 1.41667 14.1667V12.0417C1.41667 11.6659 1.56592 11.3056 1.8316 11.0399C2.09728 10.7743 2.45761 10.625 2.83333 10.625H4.95833C5.33406 10.625 5.69439 10.7743 5.96007 11.0399C6.22575 11.3056 6.375 11.6659 6.375 12.0417V14.1667Z" fill="#5F66FC"/>
<path id="Vector_3" d="M14.1666 9.20833H12.0416C11.2901 9.20833 10.5695 9.50684 10.0381 10.0382C9.50676 10.5695 9.20825 11.2902 9.20825 12.0417V14.1667C9.20825 14.9181 9.50676 15.6388 10.0381 16.1701C10.5695 16.7015 11.2901 17 12.0416 17H14.1666C14.918 17 15.6387 16.7015 16.1701 16.1701C16.7014 15.6388 16.9999 14.9181 16.9999 14.1667V12.0417C16.9999 11.2902 16.7014 10.5695 16.1701 10.0382C15.6387 9.50684 14.918 9.20833 14.1666 9.20833ZM15.5833 14.1667C15.5833 14.5424 15.434 14.9027 15.1683 15.1684C14.9026 15.4341 14.5423 15.5833 14.1666 15.5833H12.0416C11.6659 15.5833 11.3055 15.4341 11.0399 15.1684C10.7742 14.9027 10.6249 14.5424 10.6249 14.1667V12.0417C10.6249 11.6659 10.7742 11.3056 11.0399 11.0399C11.3055 10.7743 11.6659 10.625 12.0416 10.625H14.1666C14.5423 10.625 14.9026 10.7743 15.1683 11.0399C15.434 11.3056 15.5833 11.6659 15.5833 12.0417V14.1667Z" fill="#5F66FC"/>
<path id="Vector_4" d="M9.91659 4.95833H12.0416V7.08333C12.0416 7.27119 12.1162 7.45136 12.2491 7.5842C12.3819 7.71703 12.5621 7.79166 12.7499 7.79166C12.9378 7.79166 13.1179 7.71703 13.2508 7.5842C13.3836 7.45136 13.4583 7.27119 13.4583 7.08333V4.95833H15.5833C15.7711 4.95833 15.9513 4.8837 16.0841 4.75086C16.217 4.61802 16.2916 4.43786 16.2916 4.25C16.2916 4.06213 16.217 3.88197 16.0841 3.74913C15.9513 3.61629 15.7711 3.54166 15.5833 3.54166H13.4583V1.41666C13.4583 1.2288 13.3836 1.04863 13.2508 0.915794C13.1179 0.782956 12.9378 0.708328 12.7499 0.708328C12.5621 0.708328 12.3819 0.782956 12.2491 0.915794C12.1162 1.04863 12.0416 1.2288 12.0416 1.41666V3.54166H9.91659C9.72872 3.54166 9.54856 3.61629 9.41572 3.74913C9.28288 3.88197 9.20825 4.06213 9.20825 4.25C9.20825 4.43786 9.28288 4.61802 9.41572 4.75086C9.54856 4.8837 9.72872 4.95833 9.91659 4.95833Z" fill="#5F66FC"/>
</g>
<defs>
<clipPath id="clip0_27_199">
<rect width="17" height="17" fill="white"/>
</clipPath>
</defs>
</svg>
