<svg width="17" height="18" viewBox="0 0 17 18" fill="none" xmlns="http://www.w3.org/2000/svg">
<g id="editar 3" clip-path="url(#clip0_27_182)">
<path id="Vector" d="M13.2148 0.697493L4.57876 9.84149C4.24892 10.1889 3.98743 10.602 3.80943 11.0571C3.63143 11.5122 3.54045 12.0002 3.54176 12.4927V13.5C3.54176 13.6989 3.61639 13.8897 3.74923 14.0303C3.88207 14.171 4.06223 14.25 4.2501 14.25H5.20139C5.66659 14.2514 6.12744 14.1551 6.55725 13.9666C6.98706 13.7781 7.37729 13.5012 7.70535 13.152L16.3413 4.00799C16.7553 3.56862 16.9878 2.97335 16.9878 2.35274C16.9878 1.73214 16.7553 1.13687 16.3413 0.697493C15.9204 0.271413 15.3604 0.0336304 14.7781 0.0336304C14.1957 0.0336304 13.6357 0.271413 13.2148 0.697493ZM15.3398 2.94749L6.70376 12.0915C6.30435 12.5118 5.76452 12.7484 5.20139 12.75H4.95843V12.4927C4.9599 11.8965 5.18337 11.3249 5.58035 10.902L14.2163 1.75799C14.3676 1.60496 14.5688 1.51956 14.7781 1.51956C14.9873 1.51956 15.1885 1.60496 15.3398 1.75799C15.4885 1.91588 15.572 2.12976 15.572 2.35274C15.572 2.57572 15.4885 2.78961 15.3398 2.94749Z" fill="black"/>
<path id="Vector_2" d="M16.2917 6.73425C16.1038 6.73425 15.9236 6.81327 15.7908 6.95392C15.658 7.09457 15.5833 7.28534 15.5833 7.48425V11.25H12.75C12.1864 11.25 11.6459 11.4871 11.2474 11.909C10.8489 12.331 10.625 12.9033 10.625 13.5V16.5H3.54167C2.97808 16.5 2.43758 16.2629 2.03906 15.841C1.64055 15.419 1.41667 14.8467 1.41667 14.25V3.75C1.41667 3.15326 1.64055 2.58097 2.03906 2.15901C2.43758 1.73705 2.97808 1.5 3.54167 1.5H9.94642C10.1343 1.5 10.3144 1.42098 10.4473 1.28033C10.5801 1.13968 10.6548 0.948912 10.6548 0.75C10.6548 0.551088 10.5801 0.360322 10.4473 0.21967C10.3144 0.0790176 10.1343 0 9.94642 0L3.54167 0C2.6027 0.00119089 1.70252 0.396662 1.03857 1.09967C0.374625 1.80267 0.00112473 2.7558 0 3.75L0 14.25C0.00112473 15.2442 0.374625 16.1973 1.03857 16.9003C1.70252 17.6033 2.6027 17.9988 3.54167 18H11.5763C12.0416 18.0014 12.5026 17.9051 12.9325 17.7166C13.3624 17.5281 13.7528 17.2513 14.081 16.902L15.9623 14.9085C16.2922 14.5612 16.5538 14.148 16.7319 13.6929C16.91 13.2378 17.0011 12.7499 17 12.2573V7.48425C17 7.28534 16.9254 7.09457 16.7925 6.95392C16.6597 6.81327 16.4795 6.73425 16.2917 6.73425ZM13.0794 15.8415C12.7946 16.1423 12.4346 16.3505 12.0417 16.4415V13.5C12.0417 13.3011 12.1163 13.1103 12.2491 12.9697C12.382 12.829 12.5621 12.75 12.75 12.75H15.5302C15.4426 13.1651 15.2462 13.5457 14.9635 13.848L13.0794 15.8415Z" fill="black"/>
</g>
<defs>
<clipPath id="clip0_27_182">
<rect width="17" height="18" fill="white"/>
</clipPath>
</defs>
</svg>
