<svg width="19" height="19" viewBox="0 0 19 19" fill="none" xmlns="http://www.w3.org/2000/svg">
<g id="procurar 1" clip-path="url(#clip0_27_197)">
<path id="Vector" d="M18.768 17.6486L14.0425 12.9232C15.3303 11.3482 15.9634 9.33858 15.811 7.30991C15.6586 5.28124 14.7322 3.38876 13.2236 2.02392C11.715 0.659081 9.7395 -0.0736998 7.70575 -0.0228496C5.672 0.0280006 3.73559 0.858591 2.29706 2.29712C0.85853 3.73565 0.0279395 5.67206 -0.0229107 7.70581C-0.0737608 9.73956 0.65902 11.7151 2.02386 13.2237C3.3887 14.7323 5.28118 15.6586 7.30985 15.8111C9.33852 15.9635 11.3482 15.3303 12.9231 14.0426L17.6486 18.7681C17.7979 18.9123 17.9979 18.9921 18.2054 18.9903C18.413 18.9884 18.6116 18.9052 18.7583 18.7584C18.9051 18.6116 18.9884 18.4131 18.9902 18.2055C18.992 17.9979 18.9122 17.7979 18.768 17.6486ZM7.91662 14.25C6.664 14.25 5.43952 13.8786 4.398 13.1826C3.35649 12.4867 2.54473 11.4976 2.06538 10.3403C1.58602 9.18307 1.4606 7.90965 1.70498 6.6811C1.94935 5.45256 2.55254 4.32407 3.43827 3.43833C4.32401 2.5526 5.4525 1.94941 6.68104 1.70504C7.90959 1.46066 9.18301 1.58608 10.3403 2.06544C11.4975 2.54479 12.4867 3.35655 13.1826 4.39806C13.8785 5.43958 14.2499 6.66406 14.2499 7.91668C14.2481 9.5958 13.5802 11.2056 12.3929 12.3929C11.2056 13.5803 9.59574 14.2481 7.91662 14.25Z" fill="black"/>
</g>
<defs>
<clipPath id="clip0_27_197">
<rect width="19" height="19" fill="white"/>
</clipPath>
</defs>
</svg>
