<svg width="113" height="39" viewBox="0 0 113 39" fill="none" xmlns="http://www.w3.org/2000/svg">
<path d="M2 21.0645L6.08906 14.7154C6.22936 14.4976 6.57059 14.5957 6.57059 14.8539V29.912C6.57059 30.1757 6.92373 30.2694 7.05768 30.0413L16.084 14.6681C16.2118 14.4506 16.5468 14.5237 16.57 14.7741L17.9853 30.0397C18.0087 30.2926 18.3485 30.3636 18.4735 30.1419L27.1059 14.8354C27.237 14.6029 27.5953 14.6949 27.5953 14.961V30.8709" stroke="white" stroke-width="4"/>
<path d="M40.6145 31.3295C38.7888 31.3295 37.213 30.9697 35.8873 30.25C34.5691 29.5227 33.5539 28.4886 32.8418 27.1477C32.1373 25.7992 31.785 24.197 31.785 22.3409C31.785 20.5379 32.1411 18.9621 32.8532 17.6136C33.5653 16.2576 34.5691 15.2045 35.8645 14.4545C37.16 13.697 38.6865 13.3182 40.4441 13.3182C41.6865 13.3182 42.8229 13.5114 43.8532 13.8977C44.8835 14.2841 45.7736 14.8561 46.5236 15.6136C47.2736 16.3712 47.857 17.3068 48.2736 18.4205C48.6903 19.5265 48.8986 20.7955 48.8986 22.2273V23.6136H33.7282V20.3864H43.7282C43.7206 19.7955 43.5805 19.2689 43.3077 18.8068C43.035 18.3447 42.66 17.9848 42.1827 17.7273C41.713 17.4621 41.1714 17.3295 40.5577 17.3295C39.9365 17.3295 39.3797 17.4697 38.8873 17.75C38.3948 18.0227 38.0047 18.3977 37.7168 18.875C37.4289 19.3447 37.2774 19.8788 37.2623 20.4773V23.7614C37.2623 24.4735 37.4024 25.0985 37.6827 25.6364C37.963 26.1667 38.3608 26.5795 38.8759 26.875C39.3911 27.1705 40.0047 27.3182 40.7168 27.3182C41.2092 27.3182 41.6562 27.25 42.0577 27.1136C42.4592 26.9773 42.8039 26.7765 43.0918 26.5114C43.3797 26.2462 43.5956 25.9205 43.7395 25.5341L48.8418 25.6818C48.6297 26.8258 48.1638 27.822 47.4441 28.6705C46.732 29.5114 45.7964 30.1667 44.6373 30.6364C43.4782 31.0985 42.1373 31.3295 40.6145 31.3295ZM51.7367 31V13.5455H57.0208V16.75H57.214C57.5776 15.6894 58.1913 14.8523 59.0549 14.2386C59.9185 13.625 60.9488 13.3182 62.1458 13.3182C63.3579 13.3182 64.3958 13.6288 65.2594 14.25C66.1231 14.8712 66.6723 15.7045 66.9072 16.75H67.089C67.4147 15.7121 68.0511 14.8826 68.9981 14.2614C69.945 13.6326 71.0625 13.3182 72.3503 13.3182C74.0019 13.3182 75.3428 13.8485 76.3731 14.9091C77.4034 15.9621 77.9185 17.4091 77.9185 19.25V31H72.3617V20.5227C72.3617 19.6515 72.1382 18.9886 71.6913 18.5341C71.2443 18.072 70.6647 17.8409 69.9526 17.8409C69.1875 17.8409 68.5852 18.0909 68.1458 18.5909C67.714 19.0833 67.4981 19.7462 67.4981 20.5795V31H62.1572V20.4659C62.1572 19.6553 61.9375 19.0152 61.4981 18.5455C61.0587 18.0758 60.4791 17.8409 59.7594 17.8409C59.2746 17.8409 58.8466 17.9583 58.4753 18.1932C58.1041 18.4205 57.8125 18.7462 57.6003 19.1705C57.3958 19.5947 57.2935 20.0947 57.2935 20.6705V31H51.7367ZM89.5094 31.3295C87.6761 31.3295 86.1003 30.9545 84.7822 30.2045C83.4716 29.447 82.4602 28.3939 81.7481 27.0455C81.0435 25.6894 80.6913 24.1174 80.6913 22.3295C80.6913 20.5341 81.0435 18.9621 81.7481 17.6136C82.4602 16.2576 83.4716 15.2045 84.7822 14.4545C86.1003 13.697 87.6761 13.3182 89.5094 13.3182C91.3428 13.3182 92.9147 13.697 94.2253 14.4545C95.5435 15.2045 96.5549 16.2576 97.2594 17.6136C97.9716 18.9621 98.3276 20.5341 98.3276 22.3295C98.3276 24.1174 97.9716 25.6894 97.2594 27.0455C96.5549 28.3939 95.5435 29.447 94.2253 30.2045C92.9147 30.9545 91.3428 31.3295 89.5094 31.3295ZM89.5435 27.1364C90.2102 27.1364 90.7746 26.9318 91.2367 26.5227C91.6988 26.1136 92.0511 25.5455 92.2935 24.8182C92.5435 24.0909 92.6685 23.25 92.6685 22.2955C92.6685 21.3258 92.5435 20.4773 92.2935 19.75C92.0511 19.0227 91.6988 18.4545 91.2367 18.0455C90.7746 17.6364 90.2102 17.4318 89.5435 17.4318C88.8541 17.4318 88.2708 17.6364 87.7935 18.0455C87.3238 18.4545 86.964 19.0227 86.714 19.75C86.4716 20.4773 86.3503 21.3258 86.3503 22.2955C86.3503 23.25 86.4716 24.0909 86.714 24.8182C86.964 25.5455 87.3238 26.1136 87.7935 26.5227C88.2708 26.9318 88.8541 27.1364 89.5435 27.1364Z" fill="white"/>
<circle cx="106.694" cy="13" r="5.5" stroke="white"/>
<path d="M104.666 16V10.1818H106.848C107.295 10.1818 107.67 10.2595 107.973 10.4148C108.278 10.5701 108.508 10.7879 108.664 11.0682C108.821 11.3466 108.899 11.6714 108.899 12.0426C108.899 12.4157 108.82 12.7396 108.661 13.0142C108.504 13.2869 108.272 13.4981 107.965 13.6477C107.658 13.7955 107.281 13.8693 106.834 13.8693H105.28V12.9943H106.692C106.953 12.9943 107.167 12.9583 107.334 12.8864C107.501 12.8125 107.624 12.7055 107.703 12.5653C107.785 12.4233 107.825 12.2491 107.825 12.0426C107.825 11.8362 107.785 11.66 107.703 11.5142C107.622 11.3665 107.498 11.2547 107.331 11.179C107.164 11.1013 106.95 11.0625 106.686 11.0625H105.72V16H104.666ZM107.672 13.3636L109.112 16H107.936L106.522 13.3636H107.672Z" fill="white"/>
</svg>
